<svg width="478.57" height="112" viewBox="-2 -2 478.57 112" xmlns="http://www.w3.org/2000/svg">
  <g id="svgGroup" stroke-linecap="round" fill-rule="nonzero" fill="#02ff8e" stroke="none" stroke-width="0">
      <path d="M30.870 79.560L35.370 79.560Q39.870 79.560 45.720 78.930L45.720 78.930L47.970 61.110L31.950 61.110L33.120 51.210L59.760 51.210L55.260 87.930Q43.380 89.460 34.380 89.460L34.380 89.460L29.700 89.460Q16.650 89.370 10.755 84.330Q4.860 79.290 4.860 68.400L4.860 68.400Q4.860 65.700 5.310 61.470L5.310 61.470L6.660 49.500Q7.920 39.600 11.520 33.480Q15.120 27.360 21.690 24.480Q28.260 21.600 38.430 21.510L38.430 21.510L40.860 21.510Q51.750 21.510 61.650 21.780L61.650 21.780L60.390 31.770L52.920 31.590Q43.380 31.410 39.690 31.410L39.690 31.410L36.990 31.410Q30.420 31.410 26.460 33.255Q22.500 35.100 20.385 38.880Q18.270 42.660 17.460 48.960L17.460 48.960L15.840 62.010Q15.480 65.610 15.480 66.870L15.480 66.870Q15.480 73.620 18.945 76.545Q22.410 79.470 30.870 79.560L30.870 79.560ZM67.050 67.860L67.950 60.300Q70.560 38.610 91.800 38.610L91.800 38.610L96.120 38.610Q114.750 38.610 114.750 55.710L114.750 55.710Q114.750 57.780 114.480 60.210L114.480 60.210L113.580 67.770Q110.970 89.460 89.730 89.460L89.730 89.460L85.410 89.460Q66.780 89.460 66.780 72.360L66.780 72.360Q66.780 70.290 67.050 67.860L67.050 67.860ZM86.580 79.830L90.900 79.830Q101.700 79.830 103.140 68.040L103.140 68.040L104.130 59.940Q104.310 58.140 104.310 57.420L104.310 57.420Q104.310 48.240 94.950 48.240L94.950 48.240L90.630 48.240Q79.830 48.240 78.390 60.030L78.390 60.030L77.400 68.130Q77.220 69.930 77.220 70.650L77.220 70.650Q77.220 79.830 86.580 79.830L86.580 79.830ZM121.680 67.860L122.580 60.300Q125.190 38.610 146.430 38.610L146.430 38.610L150.750 38.610Q169.380 38.610 169.380 55.710L169.380 55.710Q169.380 57.780 169.110 60.210L169.110 60.210L168.210 67.770Q165.600 89.460 144.360 89.460L144.360 89.460L140.040 89.460Q121.410 89.460 121.410 72.360L121.410 72.360Q121.410 70.290 121.680 67.860L121.680 67.860ZM141.210 79.830L145.530 79.830Q156.330 79.830 157.770 68.040L157.770 68.040L158.760 59.940Q158.940 58.140 158.940 57.420L158.940 57.420Q158.940 48.240 149.580 48.240L149.580 48.240L145.260 48.240Q134.460 48.240 133.020 60.030L133.020 60.030L132.030 68.130Q131.850 69.930 131.850 70.650L131.850 70.650Q131.850 79.830 141.210 79.830L141.210 79.830ZM190.620 89.460L187.560 89.460Q179.280 89.280 173.250 88.740L173.250 88.740L174.600 79.020Q183.420 79.830 188.730 80.010L188.730 80.010L191.790 80.010Q197.550 80.010 199.845 78.570Q202.140 77.130 202.680 74.430L202.680 74.430Q202.770 73.980 202.770 73.170L202.770 73.170Q202.770 70.920 202.050 70.200L202.050 70.200Q201.420 69.210 199.980 68.850Q198.540 68.490 194.490 68.040L194.490 68.040L192.420 67.770Q187.740 67.410 183.510 66.150L183.510 66.150Q180.180 64.890 178.560 62.505Q176.940 60.120 176.940 56.160L176.940 56.160Q176.940 55.350 177.120 53.370L177.120 53.370Q177.750 47.880 180.270 44.775Q182.790 41.670 187.290 40.320Q191.790 38.970 198.900 38.970L198.900 38.970L202.590 38.970L215.280 39.060L214.110 48.600L197.730 48.600Q193.770 48.600 191.700 49.005Q189.630 49.410 188.685 50.355Q187.740 51.300 187.470 53.100L187.470 53.100Q187.380 53.550 187.380 54.270L187.380 54.270Q187.380 55.710 188.190 56.700L188.190 56.700Q189.090 57.780 190.845 58.185Q192.600 58.590 197.370 59.130L197.370 59.130Q203.040 59.670 206.640 60.840L206.640 60.840Q209.790 61.920 211.455 64.530Q213.120 67.140 213.120 71.280L213.120 71.280Q213.120 73.260 212.940 74.340L212.940 74.340Q211.860 82.710 206.640 86.085Q201.420 89.460 190.620 89.460L190.620 89.460ZM245.610 38.610L247.410 38.610Q256.680 38.610 261.405 42.975Q266.130 47.340 266.130 55.890L266.130 55.890Q266.130 57.870 265.860 60.210L265.860 60.210L264.870 68.310L231.300 68.310L231.300 68.400Q231.120 70.380 231.120 71.100L231.120 71.100Q231.120 75.690 233.775 77.895Q236.430 80.100 242.730 80.100L242.730 80.100L247.140 80.100Q251.820 80.100 261.360 79.290L261.360 79.290L260.370 88.650Q252.450 89.460 246.150 89.460L246.150 89.460L241.740 89.460Q230.850 89.460 225.765 85.050Q220.680 80.640 220.680 72.090L220.680 72.090Q220.680 70.020 220.950 67.860L220.950 67.860L221.850 60.300Q223.110 49.500 228.960 44.055Q234.810 38.610 245.610 38.610L245.610 38.610ZM232.380 59.580L255.600 59.580L255.600 59.490Q255.780 57.510 255.780 56.610L255.780 56.610Q255.780 52.290 253.485 50.040Q251.190 47.790 246.240 47.790L246.240 47.790L244.440 47.790Q233.820 47.790 232.380 59.580L232.380 59.580ZM271.890 89.100L280.170 21.510L290.790 21.510L287.370 49.500L319.950 49.500L323.370 21.510L333.990 21.510L325.710 89.100L315.090 89.100L318.690 59.400L286.110 59.400L282.510 89.100L271.890 89.100ZM339.030 67.860L339.930 60.300Q342.540 38.610 363.780 38.610L363.780 38.610L368.100 38.610Q386.730 38.610 386.730 55.710L386.730 55.710Q386.730 57.780 386.460 60.210L386.460 60.210L385.560 67.770Q382.950 89.460 361.710 89.460L361.710 89.460L357.390 89.460Q338.760 89.460 338.760 72.360L338.760 72.360Q338.760 70.290 339.030 67.860L339.030 67.860ZM358.560 79.830L362.880 79.830Q373.680 79.830 375.120 68.040L375.120 68.040L376.110 59.940Q376.290 58.140 376.290 57.420L376.290 57.420Q376.290 48.240 366.930 48.240L366.930 48.240L362.610 48.240Q351.810 48.240 350.370 60.030L350.370 60.030L349.380 68.130Q349.200 69.930 349.200 70.650L349.200 70.650Q349.200 79.830 358.560 79.830L358.560 79.830ZM407.970 89.460L404.910 89.460Q396.630 89.280 390.600 88.740L390.600 88.740L391.950 79.020Q400.770 79.830 406.080 80.010L406.080 80.010L409.140 80.010Q414.900 80.010 417.195 78.570Q419.490 77.130 420.030 74.430L420.030 74.430Q420.120 73.980 420.120 73.170L420.120 73.170Q420.120 70.920 419.400 70.200L419.400 70.200Q418.770 69.210 417.330 68.850Q415.890 68.490 411.840 68.040L411.840 68.040L409.770 67.770Q405.090 67.410 400.860 66.150L400.860 66.150Q397.530 64.890 395.910 62.505Q394.290 60.120 394.290 56.160L394.290 56.160Q394.290 55.350 394.470 53.370L394.470 53.370Q395.100 47.880 397.620 44.775Q400.140 41.670 404.640 40.320Q409.140 38.970 416.250 38.970L416.250 38.970L419.940 38.970L432.630 39.060L431.460 48.600L415.080 48.600Q411.120 48.600 409.050 49.005Q406.980 49.410 406.035 50.355Q405.090 51.300 404.820 53.100L404.820 53.100Q404.730 53.550 404.730 54.270L404.730 54.270Q404.730 55.710 405.540 56.700L405.540 56.700Q406.440 57.780 408.195 58.185Q409.950 58.590 414.720 59.130L414.720 59.130Q420.390 59.670 423.990 60.840L423.990 60.840Q427.140 61.920 428.805 64.530Q430.470 67.140 430.470 71.280L430.470 71.280Q430.470 73.260 430.290 74.340L430.290 74.340Q429.210 82.710 423.990 86.085Q418.770 89.460 407.970 89.460L407.970 89.460ZM447.210 48.600L435.960 48.600L437.130 38.970L448.470 38.970L450.000 26.190L460.350 26.190L458.820 38.970L474.120 38.970L472.950 48.600L457.650 48.600L454.860 71.550Q454.770 72.180 454.770 73.260L454.770 73.260Q454.770 79.290 460.710 79.290L460.710 79.290Q463.230 79.290 469.710 79.110L469.710 79.110L468.540 88.920Q464.940 89.100 459.540 89.100L459.540 89.100Q452.160 89.100 448.110 85.770Q444.060 82.440 444.060 75.870L444.060 75.870Q444.060 75.150 444.240 73.170L444.240 73.170L447.210 48.600Z" />
  </g>
</svg>